# xmcd
# Copyright (C) 1995-1998 Ti Kan
#
# Track frame offsets:
#       150
#       13773
#       15405
#       98646
#
# Disc length: 3149 seconds
#
# Revision: 0
# Processed by: cddbd v1.5.2PL0 Copyright (c) Steve Scherf et al.
# Submitted via: CD-Import v1.0
#
DISCID=1f0c4b04
DTITLE=Paul Auster - 
DYEAR=1900
DGENRE=
TTITLE0=Modi Stadtausglas2
TTITLE1=Abmodi Stadtausglas2
TTITLE2=Stadt Aus Glas 2.1
TTITLE3=Stadt Aus Glas 2.2
EXTD=
EXTT0=
EXTT1=
EXTT2=
EXTT3=
PLAYORDER=
